PathFileType	4	(X/Y/Z)	/Users/itak/Documents/Research/Walk-IL/dataset/trc/00122_00007.trc
DataRate	CameraRate	NumFrames	NumMarkers	Units	OrigDataRate	OrigDataStartFrame	OrigNumFrames
100.000000	100.000000	4	53	mm	100.000000	545	727
Frame#	Time	RPSI			LPSI			L3			STRN			T10			C7			CLAV			RBAK			LBAK			LSHO			LUPA			LAEL			LAOL			LWTS			LWPS			LFRA			LIFD			LHPS			LHTS			RSHO			RUPA			RAEL			RAOL			RWTS			RWPS			RFRA			RIFD			RHTS			RHPS			RBHD			LFHD			RFHD			LBHD			LHIP			RHIP			RASI			LASI			LKNE			LTHI			LANK			LTIP			LTOE			LMT1			LMT5			LHEE			RKNE			RTHI			RANK			RTIP			RTOE			RMT1			RMT5			RHEE			
		X1	Y1	Z1	X2	Y2	Z2	X3	Y3	Z3	X4	Y4	Z4	X5	Y5	Z5	X6	Y6	Z6	X7	Y7	Z7	X8	Y8	Z8	X9	Y9	Z9	X10	Y10	Z10	X11	Y11	Z11	X12	Y12	Z12	X13	Y13	Z13	X14	Y14	Z14	X15	Y15	Z15	X16	Y16	Z16	X17	Y17	Z17	X18	Y18	Z18	X19	Y19	Z19	X20	Y20	Z20	X21	Y21	Z21	X22	Y22	Z22	X23	Y23	Z23	X24	Y24	Z24	X25	Y25	Z25	X26	Y26	Z26	X27	Y27	Z27	X28	Y28	Z28	X29	Y29	Z29	X30	Y30	Z30	X31	Y31	Z31	X32	Y32	Z32	X33	Y33	Z33	X34	Y34	Z34	X35	Y35	Z35	X36	Y36	Z36	X37	Y37	Z37	X38	Y38	Z38	X39	Y39	Z39	X40	Y40	Z40	X41	Y41	Z41	X42	Y42	Z42	X43	Y43	Z43	X44	Y44	Z44	X45	Y45	Z45	X46	Y46	Z46	X47	Y47	Z47	X48	Y48	Z48	X49	Y49	Z49	X50	Y50	Z50	X51	Y51	Z51	X52	Y52	Z52	X53	Y53	Z53	

546	5.45	-670.5171508789062	1115.935424804688	448.6941528320312	-544.9375610351562	1119.083618164062	398.0927429199219	-606.6629028320312	1155.540161132812	414.7434692382812	-521.4553833007812	1358.048095703125	621.4776611328125	-612.0831909179688	1308.579833984375	380.8712768554688	-574.87158203125	1600.110229492188	408.2675170898438	-527.0111083984375	1492.390991210938	584.5327758789062	-682.1176147460938	1419.753662109375	387.982421875	-482.8983154296875	1575.769653320312	367.6678771972656	-392.6248474121094	1561.417724609375	427.6225891113281	-330.5734558105469	1430.59228515625	390.21044921875	-294.6299743652344	1214.814208984375	412.5235595703125	-367.9780883789062	1190.592529296875	367.59814453125	-286.2412414550781	1001.734741210938	587.7642211914062	-283.8246765136719	950.1431884765625	514.6171264648438	-278.0906066894531	1106.856201171875	453.9908447265625	-288.548583984375	824.578857421875	667.2902221679688	-268.6279602050781	888.7680053710938	564.689453125	-264.0669555664062	921.9212646484375	626.26953125	-728.7882690429688	1589.754516601562	521.1756591796875	-796.8563232421875	1518.199340820312	525.5361328125	-833.6347045898438	1225.409057617188	516.122314453125	-744.0840454101562	1219.810424804688	481.8045959472656	-790.5909423828125	983.8263549804688	654.9513549804688	-841.543701171875	966.3377075195312	590.7420043945312	-844.7111206054688	1152.519165039062	544.1765747070312	-771.1040649414062	788.1696166992188	673.2120361328125	-792.2540893554688	874.2003784179688	686.4987182617188	-837.6346435546875	866.8917236328125	629.3674926757812	-607.4822387695312	1791.933715820312	508.5142211914062	-395.3255615234375	1803.774047851562	560.941162109375	-494.9765319824219	1832.330688476562	639.5244140625	-509.1376647949219	1768.59033203125	420.7602233886719	-408.4814147949219	1030.976440429688	444.1300964355469	-725.1824340820312	1029.420166015625	619.5679931640625	-646.9479370117188	1104.252075195312	668.4535522460938	-405.0993957519531	1096.241455078125	561.0516357421875	-481.0614929199219	529.0167236328125	516.9278564453125	-449.6482543945312	670.3439331054688	474.3094787597656	-592.9190673828125	37.92229080200195	473.6338500976562	-531.9942016601562	277.4405212402344	444.339599609375	-541.4598388671875	36.66062164306641	705.7699584960938	-609.2227172851562	41.09440994262695	647.236572265625	-517.6246337890625	41.21965789794922	577.1875	-679.0549926757812	37.82238006591797	438.5474853515625	-637.8668823242188	563.1517333984375	759.197509765625	-689.6911010742188	832.2703247070312	695.2455444335938	-813.2962646484375	134.0339965820312	494.9819641113281	-692.3508911132812	446.28515625	704.85888671875	-728.6596069335938	44.86706161499023	690.8442993164062	-696.0467529296875	54.05325317382812	626.1651611328125	-815.0346069335938	77.17955780029297	615.63720703125	-774.5242309570312	156.6469879150391	435.3021240234375	
547	5.46	-669.14013671875	1115.8203125	457.6546630859375	-544.3577880859375	1118.799560546875	405.0079650878906	-605.6233520507812	1155.244262695312	422.5546875	-517.4028930664062	1357.99951171875	627.7802124023438	-611.5149536132812	1308.305053710938	388.2852172851562	-573.8749389648438	1599.76513671875	415.2788391113281	-523.7872314453125	1492.353393554688	590.9528198242188	-681.1383666992188	1419.335205078125	396.5250854492188	-482.4546203613281	1575.708984375	373.4718017578125	-391.2945556640625	1561.50341796875	432.4400329589844	-329.4575500488281	1430.69921875	394.7825927734375	-292.6824035644531	1215.134887695312	418.4470825195312	-366.2019653320312	1190.333618164062	374.1023254394531	-282.8900451660156	1004.223449707031	596.1602783203125	-280.4992980957031	951.7120361328125	523.62939453125	-275.6322326660156	1107.71923828125	461.0780334472656	-283.7672119140625	828.1362915039062	677.9258422851562	-264.8181457519531	891.059814453125	574.4464721679688	-260.2016296386719	925.036865234375	635.5885620117188	-726.4237060546875	1589.34423828125	530.092041015625	-794.4223022460938	1517.81298828125	535.3815307617188	-831.1828002929688	1224.942138671875	526.6087646484375	-741.9180908203125	1219.340576171875	491.2879943847656	-785.9432983398438	984.0374755859375	665.5512084960938	-837.72705078125	966.0317993164062	602.08203125	-841.709228515625	1152.07421875	555.0513305664062	-766.067626953125	788.308837890625	684.4944458007812	-787.30859375	874.447265625	697.6788330078125	-833.2606201171875	866.74755859375	641.0349731445312	-605.69677734375	1791.576049804688	515.7534790039062	-393.2695007324219	1803.959228515625	566.646728515625	-492.3358764648438	1832.112548828125	646.0186157226562	-508.1090393066406	1768.645629882812	427.3198852539062	-407.0195617675781	1030.770141601562	448.8900146484375	-720.7612915039062	1029.637939453125	629.6942138671875	-641.7025146484375	1104.186157226562	677.1636352539062	-401.6138610839844	1096.146728515625	565.7166137695312	-480.0382080078125	528.7908935546875	520.0831909179688	-448.5880126953125	670.294189453125	477.9417114257812	-592.9837036132812	38.09890365600586	473.7391967773438	-531.5469360351562	277.673095703125	446.0774841308594	-541.3281860351562	36.50180816650391	705.9590454101562	-609.2276611328125	40.99273300170898	647.3777465820312	-517.6996459960938	41.25324630737305	577.2723388671875	-679.1885375976562	38.10409164428711	438.6341247558594	-627.855224609375	565.5582885742188	772.0618896484375	-683.181884765625	833.5892333984375	706.8638305664062	-803.1810302734375	125.9488677978516	525.8516845703125	-682.319580078125	446.6163635253906	722.2525024414062	-712.357666015625	45.41423797607422	722.9344482421875	-681.556884765625	52.43999862670898	657.2626342773438	-801.0509643554688	73.96831512451172	648.838134765625	-766.2216186523438	146.6423950195312	464.3546447753906	
548	5.47	-667.6215209960938	1115.650634765625	466.6445617675781	-543.6970825195312	1118.508056640625	411.9871215820312	-604.4876708984375	1154.9228515625	430.4858703613281	-513.380615234375	1357.906494140625	634.0839233398438	-610.923583984375	1307.95947265625	395.7787170410156	-572.8999633789062	1599.391357421875	422.2796630859375	-520.5574951171875	1492.2822265625	597.3578491210938	-680.1409912109375	1418.851684570312	405.0880432128906	-482.0278930664062	1575.565063476562	379.2663269042969	-390.0022888183594	1561.489990234375	437.2101440429688	-328.4042053222656	1430.698120117188	399.2705688476562	-290.7882080078125	1215.359008789062	424.26953125	-364.4954223632812	1190.019653320312	380.5065002441406	-279.666748046875	1006.460388183594	604.22705078125	-277.2938842773438	953.1118774414062	532.276123046875	-273.2600708007812	1108.45068359375	467.9750671386719	-279.1036071777344	831.4180908203125	688.0299072265625	-261.1504821777344	893.1368408203125	583.768798828125	-256.4767150878906	927.87060546875	644.49853515625	-724.0348510742188	1588.886962890625	538.992919921875	-791.9622192382812	1517.375732421875	545.2037963867188	-828.6738891601562	1224.427612304688	537.1593017578125	-739.6724853515625	1218.811767578125	500.8787231445312	-781.3189697265625	984.1181640625	676.2329711914062	-833.8961791992188	965.6849365234375	613.4451904296875	-838.666015625	1151.591796875	565.9885864257812	-761.0436401367188	788.3851318359375	695.7477416992188	-782.33203125	874.6582641601562	708.8455810546875	-828.868408203125	866.54931640625	652.7061767578125	-603.9247436523438	1791.242431640625	522.951171875	-391.2252807617188	1804.059204101562	572.3234252929688	-489.6760864257812	1831.8193359375	652.4873657226562	-507.052734375	1768.665405273438	433.8537292480469	-405.5251770019531	1030.559692382812	453.6951904296875	-716.3592529296875	1029.785766601562	639.6935424804688	-636.5374145507812	1104.045654296875	685.7325439453125	-398.2030944824219	1096.005981445312	570.4476928710938	-478.97216796875	528.5592041015625	523.2642822265625	-447.4857788085938	670.23046875	481.6155700683594	-593.0323486328125	38.27269744873047	473.8483276367188	-531.0281982421875	277.9007263183594	447.8260192871094	-541.2367553710938	36.32999038696289	706.1206665039062	-609.3164672851562	40.83489227294922	647.4818725585938	-517.7745361328125	41.28070831298828	577.356689453125	-679.2376098632812	38.41027069091797	438.7084045410156	-617.9578857421875	567.7898559570312	784.40087890625	-676.7452392578125	834.7406005859375	718.1734619140625	-792.1272583007812	117.9551315307617	556.7896118164062	-672.0621337890625	446.7672729492188	739.35498046875	-694.4703979492188	46.23873901367188	754.1732177734375	-665.72265625	51.15569686889648	687.5381469726562	-785.7073364257812	70.8818359375	681.630126953125	-757.2394409179688	136.8029479980469	493.5379333496094	
549	5.48	-665.9330444335938	1115.406372070312	475.6728210449219	-542.9577026367188	1118.201049804688	419.0181579589844	-603.2576904296875	1154.5625	438.5093383789062	-509.3910827636719	1357.763916015625	640.39306640625	-610.3033447265625	1307.541137695312	403.3352661132812	-571.9385986328125	1598.983764648438	429.2801208496094	-517.3157958984375	1492.166625976562	603.7529296875	-679.135986328125	1418.307006835938	413.6647644042969	-481.6111755371094	1575.33935546875	385.0647888183594	-388.7706909179688	1561.376342773438	441.9340209960938	-327.41650390625	1430.579345703125	403.6947021484375	-288.9425354003906	1215.475463867188	430.0108032226562	-362.8480224609375	1189.635864257812	386.8251342773438	-276.5631408691406	1008.41455078125	611.97802734375	-274.2100219726562	954.3153686523438	540.5662231445312	-270.9670715332031	1109.031860351562	474.691650390625	-274.5974426269531	834.3714599609375	697.607177734375	-257.629638671875	894.9646606445312	592.6589965820312	-252.8924560546875	930.3811645507812	653.0048828125	-721.621337890625	1588.38037109375	547.8851928710938	-789.47900390625	1516.88134765625	555.0017700195312	-826.1090698242188	1223.866455078125	547.7796020507812	-737.3336181640625	1218.225463867188	510.5783081054688	-776.70068359375	984.0513916015625	686.9952392578125	-830.0510864257812	965.2969970703125	624.8345336914062	-835.5922241210938	1151.072143554688	576.9854736328125	-756.03955078125	788.3877563476562	706.9374389648438	-777.2774658203125	874.8285522460938	719.9707641601562	-824.4561767578125	866.2948608398438	664.3826904296875	-602.1791381835938	1790.924926757812	530.1265869140625	-389.1815795898438	1804.073608398438	577.9790649414062	-487.0006713867188	1831.4599609375	658.9326171875	-505.9642028808594	1768.636840820312	440.3633422851562	-404.0026245117188	1030.328979492188	458.5454711914062	-711.98193359375	1029.855102539062	649.5701904296875	-631.4619140625	1103.8427734375	694.1542358398438	-394.8576965332031	1095.817993164062	575.2437744140625	-477.8543701171875	528.3220825195312	526.462890625	-446.3271789550781	670.1538696289062	485.3380126953125	-593.0601196289062	38.44167709350586	473.9542846679688	-530.4352416992188	278.12451171875	449.5722961425781	-541.1937866210938	36.14765548706055	706.2462158203125	-609.4808959960938	40.62714767456055	647.5442504882812	-517.8507690429688	41.30110168457031	577.4365844726562	-679.2100830078125	38.73900985717773	438.7646789550781	-608.192138671875	569.8223266601562	796.224853515625	-670.3935546875	835.7171020507812	729.16943359375	-780.1715698242188	110.1384506225586	587.7349243164062	-661.5631103515625	446.7284240722656	756.1773681640625	-675.017822265625	47.36545562744141	784.389892578125	-648.5733032226562	50.24555206298828	716.8259887695312	-768.9998779296875	68.00543975830078	713.947509765625	-747.6303100585938	127.2007293701172	522.7896118164062	
